<mxfile host="app.diagrams.net" modified="2023-10-30T22:16:28.136Z" agent="Mozilla/5.0 (Windows NT 10.0; Win64; x64) AppleWebKit/537.36 (KHTML, like Gecko) Chrome/118.0.0.0 Safari/537.36" etag="d8-YMXtgPGJ4H-Gk2qx6" version="22.0.8" type="github">
  <diagram name="Page-1" id="sNfatiRM6gCXwYk8fjWY">
    <mxGraphModel dx="700" dy="1486" grid="1" gridSize="10" guides="1" tooltips="1" connect="1" arrows="1" fold="1" page="1" pageScale="1" pageWidth="850" pageHeight="1100" math="0" shadow="0">
      <root>
        <mxCell id="0" />
        <mxCell id="1" parent="0" />
        <mxCell id="rNXT3UYEUUCZ-tJobH-I-6" value="" style="edgeStyle=orthogonalEdgeStyle;rounded=0;orthogonalLoop=1;jettySize=auto;html=1;" edge="1" parent="1" source="rNXT3UYEUUCZ-tJobH-I-1" target="rNXT3UYEUUCZ-tJobH-I-5">
          <mxGeometry relative="1" as="geometry" />
        </mxCell>
        <mxCell id="rNXT3UYEUUCZ-tJobH-I-20" style="edgeStyle=orthogonalEdgeStyle;rounded=0;orthogonalLoop=1;jettySize=auto;html=1;exitX=0;exitY=0;exitDx=0;exitDy=0;" edge="1" parent="1" source="rNXT3UYEUUCZ-tJobH-I-1" target="rNXT3UYEUUCZ-tJobH-I-19">
          <mxGeometry relative="1" as="geometry" />
        </mxCell>
        <mxCell id="rNXT3UYEUUCZ-tJobH-I-27" value="" style="edgeStyle=orthogonalEdgeStyle;rounded=0;orthogonalLoop=1;jettySize=auto;html=1;" edge="1" parent="1" source="rNXT3UYEUUCZ-tJobH-I-1" target="rNXT3UYEUUCZ-tJobH-I-24">
          <mxGeometry relative="1" as="geometry" />
        </mxCell>
        <mxCell id="rNXT3UYEUUCZ-tJobH-I-28" value="" style="edgeStyle=orthogonalEdgeStyle;rounded=0;orthogonalLoop=1;jettySize=auto;html=1;" edge="1" parent="1" source="rNXT3UYEUUCZ-tJobH-I-1" target="rNXT3UYEUUCZ-tJobH-I-25">
          <mxGeometry relative="1" as="geometry" />
        </mxCell>
        <mxCell id="rNXT3UYEUUCZ-tJobH-I-29" style="edgeStyle=orthogonalEdgeStyle;rounded=0;orthogonalLoop=1;jettySize=auto;html=1;" edge="1" parent="1" source="rNXT3UYEUUCZ-tJobH-I-1" target="rNXT3UYEUUCZ-tJobH-I-23">
          <mxGeometry relative="1" as="geometry" />
        </mxCell>
        <mxCell id="rNXT3UYEUUCZ-tJobH-I-30" style="edgeStyle=orthogonalEdgeStyle;rounded=0;orthogonalLoop=1;jettySize=auto;html=1;exitX=0.25;exitY=0;exitDx=0;exitDy=0;" edge="1" parent="1" source="rNXT3UYEUUCZ-tJobH-I-1" target="rNXT3UYEUUCZ-tJobH-I-21">
          <mxGeometry relative="1" as="geometry" />
        </mxCell>
        <mxCell id="rNXT3UYEUUCZ-tJobH-I-31" style="edgeStyle=orthogonalEdgeStyle;rounded=0;orthogonalLoop=1;jettySize=auto;html=1;exitX=0;exitY=0.25;exitDx=0;exitDy=0;" edge="1" parent="1" source="rNXT3UYEUUCZ-tJobH-I-1" target="rNXT3UYEUUCZ-tJobH-I-22">
          <mxGeometry relative="1" as="geometry" />
        </mxCell>
        <mxCell id="rNXT3UYEUUCZ-tJobH-I-1" value="&lt;font style=&quot;font-size: 20px;&quot;&gt;Учесник&lt;/font&gt;" style="rounded=0;whiteSpace=wrap;html=1;" vertex="1" parent="1">
          <mxGeometry x="500" y="45" width="160" height="60" as="geometry" />
        </mxCell>
        <mxCell id="rNXT3UYEUUCZ-tJobH-I-7" style="edgeStyle=orthogonalEdgeStyle;rounded=0;orthogonalLoop=1;jettySize=auto;html=1;" edge="1" parent="1" source="rNXT3UYEUUCZ-tJobH-I-5">
          <mxGeometry relative="1" as="geometry">
            <mxPoint x="370" y="175" as="targetPoint" />
          </mxGeometry>
        </mxCell>
        <mxCell id="rNXT3UYEUUCZ-tJobH-I-10" value="" style="edgeStyle=orthogonalEdgeStyle;rounded=0;orthogonalLoop=1;jettySize=auto;html=1;" edge="1" parent="1" source="rNXT3UYEUUCZ-tJobH-I-5" target="rNXT3UYEUUCZ-tJobH-I-9">
          <mxGeometry relative="1" as="geometry" />
        </mxCell>
        <mxCell id="rNXT3UYEUUCZ-tJobH-I-12" value="" style="edgeStyle=orthogonalEdgeStyle;rounded=0;orthogonalLoop=1;jettySize=auto;html=1;" edge="1" parent="1" source="rNXT3UYEUUCZ-tJobH-I-5" target="rNXT3UYEUUCZ-tJobH-I-11">
          <mxGeometry relative="1" as="geometry" />
        </mxCell>
        <mxCell id="rNXT3UYEUUCZ-tJobH-I-5" value="" style="ellipse;whiteSpace=wrap;html=1;rounded=0;" vertex="1" parent="1">
          <mxGeometry x="570" y="165" width="20" height="20" as="geometry" />
        </mxCell>
        <mxCell id="rNXT3UYEUUCZ-tJobH-I-8" value="&lt;font style=&quot;font-size: 20px;&quot;&gt;Играч&lt;/font&gt;" style="rounded=0;whiteSpace=wrap;html=1;" vertex="1" parent="1">
          <mxGeometry x="250" y="145" width="120" height="60" as="geometry" />
        </mxCell>
        <mxCell id="rNXT3UYEUUCZ-tJobH-I-17" value="" style="edgeStyle=orthogonalEdgeStyle;rounded=0;orthogonalLoop=1;jettySize=auto;html=1;" edge="1" parent="1" source="rNXT3UYEUUCZ-tJobH-I-9" target="rNXT3UYEUUCZ-tJobH-I-16">
          <mxGeometry relative="1" as="geometry" />
        </mxCell>
        <mxCell id="rNXT3UYEUUCZ-tJobH-I-9" value="Судија" style="whiteSpace=wrap;html=1;rounded=0;" vertex="1" parent="1">
          <mxGeometry x="520" y="235" width="120" height="60" as="geometry" />
        </mxCell>
        <mxCell id="rNXT3UYEUUCZ-tJobH-I-14" value="" style="edgeStyle=orthogonalEdgeStyle;rounded=0;orthogonalLoop=1;jettySize=auto;html=1;" edge="1" parent="1" source="rNXT3UYEUUCZ-tJobH-I-11">
          <mxGeometry relative="1" as="geometry">
            <mxPoint x="790" y="90" as="targetPoint" />
          </mxGeometry>
        </mxCell>
        <mxCell id="rNXT3UYEUUCZ-tJobH-I-11" value="Тренер" style="whiteSpace=wrap;html=1;rounded=0;" vertex="1" parent="1">
          <mxGeometry x="690" y="145" width="120" height="60" as="geometry" />
        </mxCell>
        <mxCell id="rNXT3UYEUUCZ-tJobH-I-15" value="играчи на кои бил тренер" style="ellipse;shape=doubleEllipse;whiteSpace=wrap;html=1;" vertex="1" parent="1">
          <mxGeometry x="740" y="30" width="100" height="60" as="geometry" />
        </mxCell>
        <mxCell id="rNXT3UYEUUCZ-tJobH-I-16" value="Искуство" style="ellipse;shape=doubleEllipse;whiteSpace=wrap;html=1;" vertex="1" parent="1">
          <mxGeometry x="530" y="320" width="100" height="60" as="geometry" />
        </mxCell>
        <mxCell id="rNXT3UYEUUCZ-tJobH-I-19" value="Пол" style="ellipse;whiteSpace=wrap;html=1;" vertex="1" parent="1">
          <mxGeometry x="400" y="-40" width="80" height="40" as="geometry" />
        </mxCell>
        <mxCell id="rNXT3UYEUUCZ-tJobH-I-21" value="&lt;u&gt;Бр. пасош&lt;/u&gt;" style="ellipse;whiteSpace=wrap;html=1;" vertex="1" parent="1">
          <mxGeometry x="490" y="-50" width="80" height="40" as="geometry" />
        </mxCell>
        <mxCell id="rNXT3UYEUUCZ-tJobH-I-22" value="Презиме" style="ellipse;whiteSpace=wrap;html=1;" vertex="1" parent="1">
          <mxGeometry x="345" y="20" width="80" height="40" as="geometry" />
        </mxCell>
        <mxCell id="rNXT3UYEUUCZ-tJobH-I-23" value="" style="ellipse;whiteSpace=wrap;html=1;" vertex="1" parent="1">
          <mxGeometry x="660" y="-20" width="80" height="40" as="geometry" />
        </mxCell>
        <mxCell id="rNXT3UYEUUCZ-tJobH-I-24" value="Име" style="ellipse;whiteSpace=wrap;html=1;" vertex="1" parent="1">
          <mxGeometry x="400" y="70" width="80" height="40" as="geometry" />
        </mxCell>
        <mxCell id="rNXT3UYEUUCZ-tJobH-I-25" value="држава" style="ellipse;whiteSpace=wrap;html=1;" vertex="1" parent="1">
          <mxGeometry x="580" y="-60" width="80" height="40" as="geometry" />
        </mxCell>
      </root>
    </mxGraphModel>
  </diagram>
</mxfile>
